<?xml version="1.0" encoding="UTF-8" standalone="no"?>
<!DOCTYPE svg PUBLIC "-//W3C//DTD SVG 1.1//EN"
 "http://www.w3.org/Graphics/SVG/1.1/DTD/svg11.dtd">
<!-- Generated by graphviz version 2.43.0 (0)
 -->
<!-- Title: ensure_docked Pages: 1 -->
<svg width="369pt" height="511pt"
 viewBox="0.00 0.00 369.00 511.29" xmlns="http://www.w3.org/2000/svg" xmlns:xlink="http://www.w3.org/1999/xlink">
<g id="graph0" class="graph" transform="scale(1 1) rotate(0) translate(4 507.29)">
<title>ensure_docked</title>
<polygon fill="white" stroke="transparent" points="-4,4 -4,-507.29 365,-507.29 365,4 -4,4"/>
<text text-anchor="start" x="11.5" y="-20.4" font-family="Times,serif" font-size="12.00">Find the nearest station in the current system and dock.</text>
<text text-anchor="start" x="53.5" y="-7.4" font-family="Times,serif" font-size="12.00">If already docked, completes immediately.</text>
<!-- title -->
<g id="node1" class="node">
<title>title</title>
<text text-anchor="middle" x="221" y="-481.49" font-family="Helvetica,sans-Serif" font-weight="bold" font-size="16.00">ensure_docked</text>
</g>
<!-- check_docked -->
<g id="node2" class="node">
<title>check_docked</title>
<polygon fill="none" stroke="black" points="221,-430.29 116.43,-412.29 221,-394.29 325.57,-412.29 221,-430.29"/>
<text text-anchor="middle" x="221" y="-408.59" font-family="Times,serif" font-size="14.00">check_docked</text>
</g>
<!-- title&#45;&gt;check_docked -->
<!-- check_at_station -->
<g id="node3" class="node">
<title>check_at_station</title>
<polygon fill="none" stroke="black" points="132,-343.29 8.67,-325.29 132,-307.29 255.33,-325.29 132,-343.29"/>
<text text-anchor="middle" x="132" y="-321.59" font-family="Times,serif" font-size="14.00">check_at_station</text>
</g>
<!-- check_docked&#45;&gt;check_at_station -->
<g id="edge3" class="edge">
<title>check_docked&#45;&gt;check_at_station</title>
<path fill="none" stroke="black" d="M205.9,-396.88C191.92,-383.52 170.94,-363.48 154.9,-348.16"/>
<polygon fill="black" stroke="black" points="157.12,-345.45 147.47,-341.07 152.29,-350.51 157.12,-345.45"/>
<text text-anchor="middle" x="206.5" y="-365.09" font-family="Times,serif" font-size="14.00">default</text>
</g>
<!-- done -->
<g id="node6" class="node">
<title>done</title>
<ellipse fill="none" stroke="black" cx="221" cy="-71.15" rx="33.28" ry="33.28"/>
<ellipse fill="none" stroke="black" cx="221" cy="-71.15" rx="37.29" ry="37.29"/>
<text text-anchor="middle" x="221" y="-67.45" font-family="Times,serif" font-size="14.00">done</text>
</g>
<!-- check_docked&#45;&gt;done -->
<g id="edge2" class="edge">
<title>check_docked&#45;&gt;done</title>
<path fill="none" stroke="black" d="M249.16,-398.82C275.23,-385.14 310,-360.48 310,-326.29 310,-326.29 310,-326.29 310,-162.29 310,-132.82 285.6,-109.49 262.35,-93.96"/>
<polygon fill="black" stroke="black" points="264.21,-90.99 253.89,-88.59 260.46,-96.9 264.21,-90.99"/>
<text text-anchor="middle" x="335.5" y="-233.59" font-family="Times,serif" font-size="14.00">docked</text>
</g>
<!-- travel_to_station -->
<g id="node4" class="node">
<title>travel_to_station</title>
<polygon fill="none" stroke="black" points="96,-256.29 0,-256.29 0,-218.29 96,-218.29 96,-256.29"/>
<text text-anchor="middle" x="48" y="-241.09" font-family="Times,serif" font-size="14.00">travel</text>
<text text-anchor="middle" x="48" y="-226.09" font-family="Times,serif" font-size="14.00">&#45;&gt; $station</text>
</g>
<!-- check_at_station&#45;&gt;travel_to_station -->
<g id="edge5" class="edge">
<title>check_at_station&#45;&gt;travel_to_station</title>
<path fill="none" stroke="black" d="M98.72,-312.07C87.42,-306.56 75.5,-299.05 67,-289.29 61.26,-282.71 57.19,-274.23 54.33,-266.09"/>
<polygon fill="black" stroke="black" points="57.67,-265.02 51.41,-256.47 50.97,-267.05 57.67,-265.02"/>
<text text-anchor="middle" x="92.5" y="-278.09" font-family="Times,serif" font-size="14.00">default</text>
</g>
<!-- dock -->
<g id="node5" class="node">
<title>dock</title>
<polygon fill="none" stroke="black" points="159,-181.29 105,-181.29 105,-145.29 159,-145.29 159,-181.29"/>
<text text-anchor="middle" x="132" y="-159.59" font-family="Times,serif" font-size="14.00">dock</text>
</g>
<!-- check_at_station&#45;&gt;dock -->
<g id="edge4" class="edge">
<title>check_at_station&#45;&gt;dock</title>
<path fill="none" stroke="black" d="M132,-307.17C132,-279.65 132,-225.3 132,-192.14"/>
<polygon fill="black" stroke="black" points="135.5,-191.78 132,-181.78 128.5,-191.78 135.5,-191.78"/>
<text text-anchor="middle" x="203" y="-233.59" font-family="Times,serif" font-size="14.00">at_poi_type(station)</text>
</g>
<!-- travel_to_station&#45;&gt;dock -->
<g id="edge6" class="edge">
<title>travel_to_station&#45;&gt;dock</title>
<path fill="none" stroke="black" d="M69.2,-218.13C79.86,-208.99 92.91,-197.8 104.35,-187.99"/>
<polygon fill="black" stroke="black" points="106.65,-190.63 111.97,-181.47 102.1,-185.32 106.65,-190.63"/>
</g>
<!-- dock&#45;&gt;done -->
<g id="edge7" class="edge">
<title>dock&#45;&gt;done</title>
<path fill="none" stroke="black" d="M149.16,-144.91C160.16,-133.78 174.79,-118.95 187.98,-105.6"/>
<polygon fill="black" stroke="black" points="190.59,-107.93 195.12,-98.36 185.61,-103.01 190.59,-107.93"/>
</g>
</g>
</svg>
