<?xml version="1.0" encoding="UTF-8" standalone="no"?>
<!DOCTYPE svg PUBLIC "-//W3C//DTD SVG 1.1//EN"
 "http://www.w3.org/Graphics/SVG/1.1/DTD/svg11.dtd">
<!-- Generated by graphviz version 2.43.0 (0)
 -->
<!-- Title: mine Pages: 1 -->
<svg width="1533pt" height="634pt"
 viewBox="0.00 0.00 1533.00 634.29" xmlns="http://www.w3.org/2000/svg" xmlns:xlink="http://www.w3.org/1999/xlink">
<g id="graph0" class="graph" transform="scale(1 1) rotate(0) translate(4 630.29)">
<title>mine</title>
<polygon fill="white" stroke="transparent" points="-4,4 -4,-630.29 1529,-630.29 1529,4 -4,4"/>
<text text-anchor="middle" x="762.5" y="-7.8" font-family="Times,serif" font-size="14.00">mine: Gather resources from an asteroid belt. Undocks, travels to the nearest asteroid belt, mines until cargo is full or fuel is low, returns to station, and docks. Extracted from the auto&#45;miner&#39;s core mining loop.</text>
<!-- check_ready -->
<g id="node1" class="node">
<title>check_ready</title>
<polygon fill="none" stroke="black" points="806.02,-626.29 710.33,-608.29 806.02,-590.29 901.7,-608.29 806.02,-626.29"/>
<text text-anchor="middle" x="806.02" y="-604.59" font-family="Times,serif" font-size="14.00">check_ready</text>
</g>
<!-- undock -->
<g id="node2" class="node">
<title>undock</title>
<polygon fill="none" stroke="black" points="770.02,-539.29 702.02,-539.29 702.02,-503.29 770.02,-503.29 770.02,-539.29"/>
<text text-anchor="middle" x="736.02" y="-517.59" font-family="Times,serif" font-size="14.00">undock</text>
</g>
<!-- check_ready&#45;&gt;undock -->
<g id="edge3" class="edge">
<title>check_ready&#45;&gt;undock</title>
<path fill="none" stroke="black" d="M771.97,-596.5C760.3,-591.09 748.34,-583.28 741.02,-572.29 736.57,-565.63 734.67,-557.32 734.07,-549.4"/>
<polygon fill="black" stroke="black" points="737.56,-549.32 733.9,-539.38 730.57,-549.44 737.56,-549.32"/>
<text text-anchor="middle" x="766.52" y="-561.09" font-family="Times,serif" font-size="14.00">default</text>
</g>
<!-- travel_to_belt -->
<g id="node3" class="node">
<title>travel_to_belt</title>
<polygon fill="none" stroke="black" points="800.52,-452.29 671.52,-452.29 671.52,-414.29 800.52,-414.29 800.52,-452.29"/>
<text text-anchor="middle" x="736.02" y="-437.09" font-family="Times,serif" font-size="14.00">travel</text>
<text text-anchor="middle" x="736.02" y="-422.09" font-family="Times,serif" font-size="14.00">&#45;&gt; $mining_site</text>
</g>
<!-- check_ready&#45;&gt;travel_to_belt -->
<g id="edge2" class="edge">
<title>check_ready&#45;&gt;travel_to_belt</title>
<path fill="none" stroke="black" d="M803.29,-590.57C799.51,-569.59 791.68,-532.78 779.02,-503.29 772.7,-488.58 763.53,-473.35 755.29,-460.96"/>
<polygon fill="black" stroke="black" points="758.03,-458.77 749.5,-452.49 752.25,-462.72 758.03,-458.77"/>
<text text-anchor="middle" x="830.52" y="-517.59" font-family="Times,serif" font-size="14.00">not docked</text>
</g>
<!-- emergency_dock -->
<g id="node7" class="node">
<title>emergency_dock</title>
<polygon fill="none" stroke="black" points="1028.02,-354.79 974.02,-354.79 974.02,-318.79 1028.02,-318.79 1028.02,-354.79"/>
<text text-anchor="middle" x="1001.02" y="-333.09" font-family="Times,serif" font-size="14.00">dock</text>
</g>
<!-- check_ready&#45;&gt;emergency_dock -->
<g id="edge1" class="edge">
<title>check_ready&#45;&gt;emergency_dock</title>
<path fill="none" stroke="black" d="M821.59,-593.1C835.86,-579.78 857.25,-559.01 874.02,-539.29 924.76,-479.63 939,-464.78 977.02,-396.29 982.57,-386.29 987.58,-374.73 991.57,-364.54"/>
<polygon fill="black" stroke="black" points="994.95,-365.51 995.2,-354.92 988.4,-363.04 994.95,-365.51"/>
<text text-anchor="middle" x="980.02" y="-474.09" font-family="Times,serif" font-size="14.00">fuel_pct &lt; 0.1</text>
</g>
<!-- undock&#45;&gt;travel_to_belt -->
<g id="edge4" class="edge">
<title>undock&#45;&gt;travel_to_belt</title>
<path fill="none" stroke="black" d="M736.02,-502.89C736.02,-491.35 736.02,-475.94 736.02,-462.65"/>
<polygon fill="black" stroke="black" points="739.52,-462.56 736.02,-452.56 732.52,-462.56 739.52,-462.56"/>
</g>
<!-- travel_to_belt&#45;&gt;travel_to_belt -->
<g id="edge7" class="edge">
<title>travel_to_belt&#45;&gt;travel_to_belt</title>
<path fill="none" stroke="black" d="M800.7,-440.93C811.26,-439.83 818.52,-437.29 818.52,-433.29 818.52,-430.73 815.54,-428.77 810.62,-427.4"/>
<polygon fill="black" stroke="black" points="811.15,-423.94 800.7,-425.66 809.94,-430.84 811.15,-423.94"/>
<text text-anchor="middle" x="844.02" y="-429.59" font-family="Times,serif" font-size="14.00">default</text>
</g>
<!-- mine_loop -->
<g id="node4" class="node">
<title>mine_loop</title>
<polygon fill="none" stroke="black" stroke-width="2" points="747.02,-363.29 561.02,-363.29 561.02,-310.29 747.02,-310.29 747.02,-363.29"/>
<text text-anchor="middle" x="654.02" y="-348.09" font-family="Times,serif" font-size="14.00">mine</text>
<text text-anchor="middle" x="654.02" y="-333.09" font-family="Times,serif" font-size="14.00">(while cargo_pct &lt; 0.97</text>
<text text-anchor="middle" x="654.02" y="-318.09" font-family="Times,serif" font-size="14.00">and fuel_pct &gt; 0.1)</text>
</g>
<!-- travel_to_belt&#45;&gt;mine_loop -->
<g id="edge5" class="edge">
<title>travel_to_belt&#45;&gt;mine_loop</title>
<path fill="none" stroke="black" d="M671.43,-433.01C600.46,-432.26 493.04,-426.03 467.02,-396.29 436.31,-361.21 492.1,-346.92 550.56,-341.22"/>
<polygon fill="black" stroke="black" points="551.06,-344.69 560.71,-340.32 550.44,-337.72 551.06,-344.69"/>
<text text-anchor="middle" x="590.52" y="-385.09" font-family="Times,serif" font-size="14.00">current_poi_type == asteroid_belt</text>
</g>
<!-- travel_to_belt&#45;&gt;mine_loop -->
<g id="edge6" class="edge">
<title>travel_to_belt&#45;&gt;mine_loop</title>
<path fill="none" stroke="black" d="M730.8,-414.02C727.23,-403.68 721.73,-390.93 714.02,-381.29 710.83,-377.32 707.19,-373.53 703.32,-369.97"/>
<polygon fill="black" stroke="black" points="705.52,-367.24 695.65,-363.4 700.97,-372.56 705.52,-367.24"/>
<text text-anchor="middle" x="848.02" y="-385.09" font-family="Times,serif" font-size="14.00">current_poi_type == asteroid_field</text>
</g>
<!-- mine_loop&#45;&gt;mine_loop -->
<g id="edge8" class="edge">
<title>mine_loop&#45;&gt;mine_loop</title>
<path fill="none" stroke="black" stroke-dasharray="5,2" d="M747.14,-345.12C757.97,-343.58 765.02,-340.81 765.02,-336.79 765.02,-334.22 762.13,-332.16 757.2,-330.61"/>
<polygon fill="black" stroke="black" points="757.65,-327.13 747.14,-328.47 756.19,-333.97 757.65,-327.13"/>
<text text-anchor="middle" x="784.52" y="-333.09" font-family="Times,serif" font-size="14.00">while</text>
</g>
<!-- return_to_station -->
<g id="node5" class="node">
<title>return_to_station</title>
<polygon fill="none" stroke="black" points="1006.02,-259.29 864.02,-259.29 864.02,-221.29 1006.02,-221.29 1006.02,-259.29"/>
<text text-anchor="middle" x="935.02" y="-244.09" font-family="Times,serif" font-size="14.00">travel</text>
<text text-anchor="middle" x="935.02" y="-229.09" font-family="Times,serif" font-size="14.00">&#45;&gt; $home_station</text>
</g>
<!-- mine_loop&#45;&gt;return_to_station -->
<g id="edge9" class="edge">
<title>mine_loop&#45;&gt;return_to_station</title>
<path fill="none" stroke="black" d="M651.98,-310.18C652.5,-298.6 655.34,-285.66 664.02,-277.29 690.45,-251.83 783.84,-244 853.64,-241.78"/>
<polygon fill="black" stroke="black" points="853.86,-245.28 863.76,-241.49 853.67,-238.28 853.86,-245.28"/>
<text text-anchor="middle" x="809.52" y="-281.09" font-family="Times,serif" font-size="14.00">not(cargo_pct &lt; 0.97 and fuel_pct &gt; 0.1)</text>
</g>
<!-- dock -->
<g id="node6" class="node">
<title>dock</title>
<polygon fill="none" stroke="black" points="995.02,-170.29 941.02,-170.29 941.02,-134.29 995.02,-134.29 995.02,-170.29"/>
<text text-anchor="middle" x="968.02" y="-148.59" font-family="Times,serif" font-size="14.00">dock</text>
</g>
<!-- return_to_station&#45;&gt;dock -->
<g id="edge10" class="edge">
<title>return_to_station&#45;&gt;dock</title>
<path fill="none" stroke="black" d="M942.02,-221.06C946.6,-209.11 952.67,-193.3 957.79,-179.96"/>
<polygon fill="black" stroke="black" points="961.16,-180.93 961.48,-170.34 954.63,-178.42 961.16,-180.93"/>
</g>
<!-- done -->
<g id="node8" class="node">
<title>done</title>
<ellipse fill="none" stroke="black" cx="1006.02" cy="-60.15" rx="33.28" ry="33.28"/>
<ellipse fill="none" stroke="black" cx="1006.02" cy="-60.15" rx="37.29" ry="37.29"/>
<text text-anchor="middle" x="1006.02" y="-56.45" font-family="Times,serif" font-size="14.00">done</text>
</g>
<!-- dock&#45;&gt;done -->
<g id="edge11" class="edge">
<title>dock&#45;&gt;done</title>
<path fill="none" stroke="black" d="M975.34,-133.91C978.98,-125.29 983.55,-114.45 988.04,-103.8"/>
<polygon fill="black" stroke="black" points="991.28,-105.11 991.94,-94.54 984.83,-102.39 991.28,-105.11"/>
</g>
<!-- emergency_dock&#45;&gt;return_to_station -->
<g id="edge13" class="edge">
<title>emergency_dock&#45;&gt;return_to_station</title>
<path fill="none" stroke="black" d="M988.06,-318.57C982.17,-310.63 975.15,-301.05 969.02,-292.29 963.52,-284.44 957.68,-275.8 952.42,-267.9"/>
<polygon fill="black" stroke="black" points="955.21,-265.78 946.77,-259.37 949.37,-269.64 955.21,-265.78"/>
<text text-anchor="middle" x="994.52" y="-281.09" font-family="Times,serif" font-size="14.00">default</text>
</g>
<!-- emergency_dock&#45;&gt;done -->
<g id="edge12" class="edge">
<title>emergency_dock&#45;&gt;done</title>
<path fill="none" stroke="black" d="M1010.5,-318.56C1014.26,-310.78 1018.13,-301.33 1020.02,-292.29 1021.38,-285.77 1020.23,-283.96 1020.02,-277.29 1018.12,-218.66 1013.34,-151.23 1009.89,-107.49"/>
<polygon fill="black" stroke="black" points="1013.37,-107.13 1009.09,-97.44 1006.39,-107.69 1013.37,-107.13"/>
<text text-anchor="middle" x="1041.52" y="-192.09" font-family="Times,serif" font-size="14.00">docked</text>
</g>
</g>
</svg>
