<?xml version="1.0" encoding="UTF-8" standalone="no"?>
<!DOCTYPE svg PUBLIC "-//W3C//DTD SVG 1.1//EN"
 "http://www.w3.org/Graphics/SVG/1.1/DTD/svg11.dtd">
<!-- Generated by graphviz version 2.43.0 (0)
 -->
<!-- Title: scan_for_distress Pages: 1 -->
<svg width="402pt" height="746pt"
 viewBox="0.00 0.00 402.00 746.37" xmlns="http://www.w3.org/2000/svg" xmlns:xlink="http://www.w3.org/1999/xlink">
<g id="graph0" class="graph" transform="scale(1 1) rotate(0) translate(4 742.37)">
<title>scan_for_distress</title>
<polygon fill="white" stroke="transparent" points="-4,4 -4,-742.37 398,-742.37 398,4 -4,4"/>
<text text-anchor="start" x="8" y="-33.4" font-family="Times,serif" font-size="12.00">Monitor local, system, and private chat channels for messages</text>
<text text-anchor="start" x="10.5" y="-20.4" font-family="Times,serif" font-size="12.00">requesting fuel or repair assistance. Extract requester details</text>
<text text-anchor="start" x="107" y="-7.4" font-family="Times,serif" font-size="12.00">for assist_deliver to consume.</text>
<!-- title -->
<g id="node1" class="node">
<title>title</title>
<text text-anchor="middle" x="208.48" y="-716.57" font-family="Helvetica,sans-Serif" font-weight="bold" font-size="16.00">scan_for_distress</text>
</g>
<!-- get_local_chat -->
<g id="node2" class="node">
<title>get_local_chat</title>
<polygon fill="none" stroke="black" points="275.48,-665.37 141.48,-665.37 141.48,-627.37 275.48,-627.37 275.48,-665.37"/>
<text text-anchor="middle" x="208.48" y="-650.17" font-family="Times,serif" font-size="14.00">get_chat_history</text>
<text text-anchor="middle" x="208.48" y="-635.17" font-family="Times,serif" font-size="14.00">(local)</text>
</g>
<!-- title&#45;&gt;get_local_chat -->
<!-- get_system_chat -->
<g id="node3" class="node">
<title>get_system_chat</title>
<polygon fill="none" stroke="black" points="275.48,-590.37 141.48,-590.37 141.48,-552.37 275.48,-552.37 275.48,-590.37"/>
<text text-anchor="middle" x="208.48" y="-575.17" font-family="Times,serif" font-size="14.00">get_chat_history</text>
<text text-anchor="middle" x="208.48" y="-560.17" font-family="Times,serif" font-size="14.00">(system)</text>
</g>
<!-- get_local_chat&#45;&gt;get_system_chat -->
<g id="edge2" class="edge">
<title>get_local_chat&#45;&gt;get_system_chat</title>
<path fill="none" stroke="black" d="M208.48,-627.33C208.48,-619.26 208.48,-609.55 208.48,-600.55"/>
<polygon fill="black" stroke="black" points="211.98,-600.46 208.48,-590.46 204.98,-600.46 211.98,-600.46"/>
</g>
<!-- get_private_chat -->
<g id="node4" class="node">
<title>get_private_chat</title>
<polygon fill="none" stroke="black" points="275.48,-515.37 141.48,-515.37 141.48,-477.37 275.48,-477.37 275.48,-515.37"/>
<text text-anchor="middle" x="208.48" y="-500.17" font-family="Times,serif" font-size="14.00">get_chat_history</text>
<text text-anchor="middle" x="208.48" y="-485.17" font-family="Times,serif" font-size="14.00">(private)</text>
</g>
<!-- get_system_chat&#45;&gt;get_private_chat -->
<g id="edge3" class="edge">
<title>get_system_chat&#45;&gt;get_private_chat</title>
<path fill="none" stroke="black" d="M208.48,-552.33C208.48,-544.26 208.48,-534.55 208.48,-525.55"/>
<polygon fill="black" stroke="black" points="211.98,-525.46 208.48,-515.46 204.98,-525.46 211.98,-525.46"/>
</g>
<!-- scan_messages -->
<g id="node5" class="node">
<title>scan_messages</title>
<polygon fill="none" stroke="black" points="208.48,-440.37 123.48,-402.37 208.48,-364.37 293.48,-402.37 208.48,-440.37"/>
<text text-anchor="middle" x="208.48" y="-406.17" font-family="Times,serif" font-size="14.00">scan for</text>
<text text-anchor="middle" x="208.48" y="-391.17" font-family="Times,serif" font-size="14.00">keywords</text>
</g>
<!-- get_private_chat&#45;&gt;scan_messages -->
<g id="edge4" class="edge">
<title>get_private_chat&#45;&gt;scan_messages</title>
<path fill="none" stroke="black" d="M208.48,-477.2C208.48,-469.5 208.48,-460.15 208.48,-450.72"/>
<polygon fill="black" stroke="black" points="211.98,-450.54 208.48,-440.54 204.98,-450.54 211.98,-450.54"/>
</g>
<!-- extract_request -->
<g id="node6" class="node">
<title>extract_request</title>
<polygon fill="none" stroke="black" points="174.98,-254.83 45.98,-254.83 45.98,-216.83 174.98,-216.83 174.98,-254.83"/>
<text text-anchor="middle" x="110.48" y="-239.63" font-family="Times,serif" font-size="14.00">extract_request</text>
<text text-anchor="middle" x="110.48" y="-224.63" font-family="Times,serif" font-size="14.00">details</text>
</g>
<!-- scan_messages&#45;&gt;extract_request -->
<g id="edge5" class="edge">
<title>scan_messages&#45;&gt;extract_request</title>
<path fill="none" stroke="black" d="M168.13,-382.39C153.42,-373.48 138.06,-361.46 128.48,-346.37 112.98,-321.96 109.47,-288.54 109.21,-265.06"/>
<polygon fill="black" stroke="black" points="112.71,-265.06 109.29,-255.03 105.71,-265.01 112.71,-265.06"/>
<text text-anchor="middle" x="178.48" y="-335.17" font-family="Times,serif" font-size="14.00">found request</text>
</g>
<!-- done_no_request -->
<g id="node7" class="node">
<title>done_no_request</title>
<ellipse fill="none" stroke="black" cx="270.48" cy="-235.83" rx="73.58" ry="73.58"/>
<ellipse fill="none" stroke="black" cx="270.48" cy="-235.83" rx="77.58" ry="77.58"/>
<text text-anchor="middle" x="270.48" y="-239.63" font-family="Times,serif" font-size="14.00">done</text>
<text text-anchor="middle" x="270.48" y="-224.63" font-family="Times,serif" font-size="14.00">(no request)</text>
</g>
<!-- scan_messages&#45;&gt;done_no_request -->
<g id="edge6" class="edge">
<title>scan_messages&#45;&gt;done_no_request</title>
<path fill="none" stroke="black" d="M222.49,-370.42C225.88,-362.62 229.41,-354.23 232.48,-346.37 235.91,-337.61 239.35,-328.39 242.69,-319.18"/>
<polygon fill="black" stroke="black" points="246.04,-320.19 246.13,-309.6 239.45,-317.83 246.04,-320.19"/>
<text text-anchor="middle" x="278.48" y="-335.17" font-family="Times,serif" font-size="14.00">no matches</text>
</g>
<!-- done -->
<g id="node8" class="node">
<title>done</title>
<ellipse fill="none" stroke="black" cx="110.48" cy="-84.15" rx="33.28" ry="33.28"/>
<ellipse fill="none" stroke="black" cx="110.48" cy="-84.15" rx="37.29" ry="37.29"/>
<text text-anchor="middle" x="110.48" y="-80.45" font-family="Times,serif" font-size="14.00">done</text>
</g>
<!-- extract_request&#45;&gt;done -->
<g id="edge7" class="edge">
<title>extract_request&#45;&gt;done</title>
<path fill="none" stroke="black" d="M110.48,-216.78C110.48,-195.86 110.48,-160.6 110.48,-131.83"/>
<polygon fill="black" stroke="black" points="113.98,-131.56 110.48,-121.56 106.98,-131.56 113.98,-131.56"/>
</g>
</g>
</svg>
