<?xml version="1.0" encoding="UTF-8" standalone="no"?>
<!DOCTYPE svg PUBLIC "-//W3C//DTD SVG 1.1//EN"
 "http://www.w3.org/Graphics/SVG/1.1/DTD/svg11.dtd">
<!-- Generated by graphviz version 2.43.0 (0)
 -->
<!-- Title: sell Pages: 1 -->
<svg width="436pt" height="265pt"
 viewBox="0.00 0.00 436.00 265.29" xmlns="http://www.w3.org/2000/svg" xmlns:xlink="http://www.w3.org/1999/xlink">
<g id="graph0" class="graph" transform="scale(1 1) rotate(0) translate(4 261.29)">
<title>sell</title>
<polygon fill="white" stroke="transparent" points="-4,4 -4,-261.29 432,-261.29 432,4 -4,4"/>
<text text-anchor="middle" x="214" y="-7.8" font-family="Times,serif" font-size="14.00">sell: Sell all cargo at the current station. Must be docked.</text>
<!-- check_docked -->
<g id="node1" class="node">
<title>check_docked</title>
<polygon fill="none" stroke="black" points="172.39,-257.29 67.82,-239.29 172.39,-221.29 276.96,-239.29 172.39,-257.29"/>
<text text-anchor="middle" x="172.39" y="-235.59" font-family="Times,serif" font-size="14.00">check_docked</text>
</g>
<!-- sell_all -->
<g id="node2" class="node">
<title>sell_all</title>
<polygon fill="none" stroke="black" points="135.39,-170.29 81.39,-170.29 81.39,-134.29 135.39,-134.29 135.39,-170.29"/>
<text text-anchor="middle" x="108.39" y="-148.59" font-family="Times,serif" font-size="14.00">sell</text>
</g>
<!-- check_docked&#45;&gt;sell_all -->
<g id="edge3" class="edge">
<title>check_docked&#45;&gt;sell_all</title>
<path fill="none" stroke="black" d="M136.72,-227.4C125.32,-222.05 113.96,-214.3 107.39,-203.29 103.41,-196.63 102.33,-188.53 102.62,-180.8"/>
<polygon fill="black" stroke="black" points="106.12,-180.98 103.7,-170.67 99.16,-180.24 106.12,-180.98"/>
<text text-anchor="middle" x="132.89" y="-192.09" font-family="Times,serif" font-size="14.00">default</text>
</g>
<!-- done -->
<g id="node3" class="node">
<title>done</title>
<ellipse fill="none" stroke="black" cx="172.39" cy="-60.15" rx="33.28" ry="33.28"/>
<ellipse fill="none" stroke="black" cx="172.39" cy="-60.15" rx="37.29" ry="37.29"/>
<text text-anchor="middle" x="172.39" y="-56.45" font-family="Times,serif" font-size="14.00">done</text>
</g>
<!-- check_docked&#45;&gt;done -->
<g id="edge1" class="edge">
<title>check_docked&#45;&gt;done</title>
<path fill="none" stroke="black" d="M172.39,-220.99C172.39,-194.96 172.39,-144.85 172.39,-107.64"/>
<polygon fill="black" stroke="black" points="175.89,-107.52 172.39,-97.52 168.89,-107.52 175.89,-107.52"/>
<text text-anchor="middle" x="211.89" y="-148.59" font-family="Times,serif" font-size="14.00">not docked</text>
</g>
<!-- check_docked&#45;&gt;done -->
<g id="edge2" class="edge">
<title>check_docked&#45;&gt;done</title>
<path fill="none" stroke="black" d="M197.95,-225.5C217.7,-214.05 243.59,-195.21 255.39,-170.29 262.24,-155.83 261.98,-148.88 255.39,-134.29 246.44,-114.47 229.16,-97.87 212.68,-85.52"/>
<polygon fill="black" stroke="black" points="214.35,-82.41 204.18,-79.46 210.29,-88.11 214.35,-82.41"/>
<text text-anchor="middle" x="310.39" y="-148.59" font-family="Times,serif" font-size="14.00">not has_cargo</text>
</g>
<!-- sell_all&#45;&gt;done -->
<g id="edge4" class="edge">
<title>sell_all&#45;&gt;done</title>
<path fill="none" stroke="black" d="M120.73,-133.91C127.76,-124.02 136.84,-111.22 145.43,-99.12"/>
<polygon fill="black" stroke="black" points="148.33,-101.08 151.27,-90.9 142.63,-97.03 148.33,-101.08"/>
</g>
</g>
</svg>
