<?xml version="1.0" encoding="UTF-8" standalone="no"?>
<!DOCTYPE svg PUBLIC "-//W3C//DTD SVG 1.1//EN"
 "http://www.w3.org/Graphics/SVG/1.1/DTD/svg11.dtd">
<!-- Generated by graphviz version 2.43.0 (0)
 -->
<!-- Title: Exploration Pages: 1 -->
<svg width="884pt" height="365pt"
 viewBox="0.00 0.00 884.00 365.00" xmlns="http://www.w3.org/2000/svg" xmlns:xlink="http://www.w3.org/1999/xlink">
<g id="graph0" class="graph" transform="scale(1 1) rotate(0) translate(4 361)">
<title>Exploration</title>
<polygon fill="white" stroke="transparent" points="-4,4 -4,-361 880,-361 880,4 -4,4"/>
<!-- wormhole_navigation -->
<g id="node1" class="node">
<title>wormhole_navigation</title>
<polygon fill="none" stroke="black" points="660,-322 489,-322 489,-286 660,-286 660,-322"/>
<text text-anchor="middle" x="574.5" y="-300.3" font-family="Times,serif" font-size="14.00">Wormhole Navigation</text>
</g>
<!-- jump_calibration -->
<g id="node2" class="node">
<title>jump_calibration</title>
<polygon fill="none" stroke="black" points="381.5,-357 244.5,-357 244.5,-321 381.5,-321 381.5,-357"/>
<text text-anchor="middle" x="313" y="-335.3" font-family="Times,serif" font-size="14.00">Jump Calibration</text>
</g>
<!-- jump_calibration&#45;&gt;wormhole_navigation -->
<g id="edge10" class="edge">
<title>jump_calibration&#45;&gt;wormhole_navigation</title>
<path fill="none" stroke="#7f7f7f" d="M381.5,-329.9C411.04,-325.91 446.23,-321.17 478.35,-316.83"/>
<polygon fill="#7f7f7f" stroke="#7f7f7f" points="479.23,-320.25 488.67,-315.44 478.29,-313.31 479.23,-320.25"/>
<text text-anchor="middle" x="466" y="-321.8" font-family="Times,serif" font-size="14.00">5</text>
</g>
<!-- exploration -->
<g id="node3" class="node">
<title>exploration</title>
<polygon fill="none" stroke="black" points="118.5,-198 18.5,-198 18.5,-162 118.5,-162 118.5,-198"/>
<text text-anchor="middle" x="68.5" y="-176.3" font-family="Times,serif" font-size="14.00">Exploration</text>
</g>
<!-- first_contact -->
<g id="node5" class="node">
<title>first_contact</title>
<polygon fill="none" stroke="black" points="404,-303 222,-303 222,-267 404,-267 404,-303"/>
<text text-anchor="middle" x="313" y="-281.3" font-family="Times,serif" font-size="14.00">First Contact Protocols</text>
</g>
<!-- exploration&#45;&gt;first_contact -->
<g id="edge1" class="edge">
<title>exploration&#45;&gt;first_contact</title>
<path fill="none" stroke="black" d="M95.82,-198.09C129.35,-221.13 183,-258 183,-258 183,-258 197.12,-260.96 216.01,-264.91"/>
<polygon fill="black" stroke="black" points="215.45,-268.37 225.96,-266.99 216.88,-261.52 215.45,-268.37"/>
<text text-anchor="middle" x="160" y="-247.8" font-family="Times,serif" font-size="14.00">5</text>
</g>
<!-- astrometrics -->
<g id="node7" class="node">
<title>astrometrics</title>
<polygon fill="none" stroke="black" points="367.5,-249 258.5,-249 258.5,-213 367.5,-213 367.5,-249"/>
<text text-anchor="middle" x="313" y="-227.3" font-family="Times,serif" font-size="14.00">Astrometrics</text>
</g>
<!-- exploration&#45;&gt;astrometrics -->
<g id="edge3" class="edge">
<title>exploration&#45;&gt;astrometrics</title>
<path fill="none" stroke="black" d="M118.57,-190.32C156.03,-198.2 207.95,-209.12 248.56,-217.66"/>
<polygon fill="black" stroke="black" points="247.86,-221.09 258.36,-219.72 249.3,-214.24 247.86,-221.09"/>
<text text-anchor="middle" x="160" y="-202.8" font-family="Times,serif" font-size="14.00">5</text>
</g>
<!-- hazard_resistance -->
<g id="node8" class="node">
<title>hazard_resistance</title>
<polygon fill="none" stroke="black" points="443,-144 183,-144 183,-108 443,-108 443,-144"/>
<text text-anchor="middle" x="313" y="-122.3" font-family="Times,serif" font-size="14.00">Environmental Hazard Resistance</text>
</g>
<!-- exploration&#45;&gt;hazard_resistance -->
<g id="edge4" class="edge">
<title>exploration&#45;&gt;hazard_resistance</title>
<path fill="none" stroke="black" d="M118.74,-163.3C137.75,-156.85 155,-151 155,-151 155,-151 169.01,-148.77 188.67,-145.64"/>
<polygon fill="black" stroke="black" points="189.41,-149.07 198.73,-144.04 188.31,-142.15 189.41,-149.07"/>
<text text-anchor="middle" x="160" y="-154.8" font-family="Times,serif" font-size="14.00">5</text>
</g>
<!-- anomaly_detection -->
<g id="node11" class="node">
<title>anomaly_detection</title>
<polygon fill="none" stroke="black" points="650.5,-143 498.5,-143 498.5,-107 650.5,-107 650.5,-143"/>
<text text-anchor="middle" x="574.5" y="-121.3" font-family="Times,serif" font-size="14.00">Anomaly Detection</text>
</g>
<!-- exploration&#45;&gt;anomaly_detection -->
<g id="edge12" class="edge">
<title>exploration&#45;&gt;anomaly_detection</title>
<path fill="none" stroke="black" d="M118.71,-176.44C220.13,-169.11 443,-153 443,-153 443,-153 463.52,-148.6 488.29,-143.28"/>
<polygon fill="black" stroke="black" points="489.3,-146.65 498.34,-141.13 487.83,-139.8 489.3,-146.65"/>
<text text-anchor="middle" x="313" y="-174.8" font-family="Times,serif" font-size="14.00">5</text>
</g>
<!-- survey -->
<g id="node13" class="node">
<title>survey</title>
<polygon fill="none" stroke="black" points="346.5,-36 279.5,-36 279.5,0 346.5,0 346.5,-36"/>
<text text-anchor="middle" x="313" y="-14.3" font-family="Times,serif" font-size="14.00">Survey</text>
</g>
<!-- exploration&#45;&gt;survey -->
<g id="edge9" class="edge">
<title>exploration&#45;&gt;survey</title>
<path fill="none" stroke="black" d="M88.83,-161.79C116.73,-135.49 165,-90 165,-90 165,-90 183,-45 183,-45 183,-45 231.65,-34.82 269.2,-26.96"/>
<polygon fill="black" stroke="black" points="270.38,-30.29 279.45,-24.81 268.94,-23.44 270.38,-30.29"/>
<text text-anchor="middle" x="160" y="-102.8" font-family="Times,serif" font-size="14.00">3</text>
</g>
<!-- scanning_advanced -->
<g id="node4" class="node">
<title>scanning_advanced</title>
<polygon fill="none" stroke="black" points="391,-90 235,-90 235,-54 391,-54 391,-90"/>
<text text-anchor="middle" x="313" y="-68.3" font-family="Times,serif" font-size="14.00">Advanced Scanning</text>
</g>
<!-- scanning_advanced&#45;&gt;anomaly_detection -->
<g id="edge13" class="edge">
<title>scanning_advanced&#45;&gt;anomaly_detection</title>
<path fill="none" stroke="#7f7f7f" d="M391.16,-87.76C421.76,-94.01 457.06,-101.22 488.4,-107.62"/>
<polygon fill="#7f7f7f" stroke="#7f7f7f" points="487.93,-111.1 498.43,-109.67 489.33,-104.24 487.93,-111.1"/>
<text text-anchor="middle" x="466" y="-106.8" font-family="Times,serif" font-size="14.00">3</text>
</g>
<!-- diplomacy -->
<g id="node6" class="node">
<title>diplomacy</title>
<polygon fill="none" stroke="black" points="114.5,-307 22.5,-307 22.5,-271 114.5,-271 114.5,-307"/>
<text text-anchor="middle" x="68.5" y="-285.3" font-family="Times,serif" font-size="14.00">Diplomacy</text>
</g>
<!-- diplomacy&#45;&gt;first_contact -->
<g id="edge2" class="edge">
<title>diplomacy&#45;&gt;first_contact</title>
<path fill="none" stroke="#7f7f7f" d="M114.54,-288.26C141.85,-287.81 177.83,-287.21 211.59,-286.66"/>
<polygon fill="#7f7f7f" stroke="#7f7f7f" points="212.05,-290.15 221.99,-286.48 211.93,-283.15 212.05,-290.15"/>
<text text-anchor="middle" x="160" y="-290.8" font-family="Times,serif" font-size="14.00">3</text>
</g>
<!-- astrometrics&#45;&gt;wormhole_navigation -->
<g id="edge11" class="edge">
<title>astrometrics&#45;&gt;wormhole_navigation</title>
<path fill="none" stroke="black" d="M367.59,-242.22C403.03,-249.63 443,-258 443,-258 443,-258 478.71,-270.59 512.77,-282.59"/>
<polygon fill="black" stroke="black" points="511.7,-285.93 522.3,-285.95 514.03,-279.33 511.7,-285.93"/>
<text text-anchor="middle" x="466" y="-269.8" font-family="Times,serif" font-size="14.00">5</text>
</g>
<!-- cartography -->
<g id="node10" class="node">
<title>cartography</title>
<polygon fill="none" stroke="black" points="628,-249 521,-249 521,-213 628,-213 628,-249"/>
<text text-anchor="middle" x="574.5" y="-227.3" font-family="Times,serif" font-size="14.00">Cartography</text>
</g>
<!-- astrometrics&#45;&gt;cartography -->
<g id="edge6" class="edge">
<title>astrometrics&#45;&gt;cartography</title>
<path fill="none" stroke="black" d="M367.77,-231C409.27,-231 466.8,-231 510.47,-231"/>
<polygon fill="black" stroke="black" points="510.69,-234.5 520.69,-231 510.69,-227.5 510.69,-234.5"/>
<text text-anchor="middle" x="466" y="-234.8" font-family="Times,serif" font-size="14.00">3</text>
</g>
<!-- shields -->
<g id="node9" class="node">
<title>shields</title>
<polygon fill="none" stroke="black" points="137,-92 0,-92 0,-56 137,-56 137,-92"/>
<text text-anchor="middle" x="68.5" y="-70.3" font-family="Times,serif" font-size="14.00">Shield Operation</text>
</g>
<!-- shields&#45;&gt;hazard_resistance -->
<g id="edge5" class="edge">
<title>shields&#45;&gt;hazard_resistance</title>
<path fill="none" stroke="#7f7f7f" d="M137.12,-74.71C152.8,-74.87 165,-75 165,-75 165,-75 183,-99 183,-99 183,-99 197.12,-101.96 216.01,-105.91"/>
<polygon fill="#7f7f7f" stroke="#7f7f7f" points="215.45,-109.37 225.96,-107.99 216.88,-102.52 215.45,-109.37"/>
<text text-anchor="middle" x="160" y="-78.8" font-family="Times,serif" font-size="14.00">3</text>
</g>
<!-- anomaly_exploitation -->
<g id="node12" class="node">
<title>anomaly_exploitation</title>
<polygon fill="none" stroke="black" points="876,-143 706,-143 706,-107 876,-107 876,-143"/>
<text text-anchor="middle" x="791" y="-121.3" font-family="Times,serif" font-size="14.00">Anomaly Exploitation</text>
</g>
<!-- anomaly_detection&#45;&gt;anomaly_exploitation -->
<g id="edge7" class="edge">
<title>anomaly_detection&#45;&gt;anomaly_exploitation</title>
<path fill="none" stroke="black" d="M650.52,-125C665.05,-125 680.45,-125 695.5,-125"/>
<polygon fill="black" stroke="black" points="695.86,-128.5 705.86,-125 695.86,-121.5 695.86,-128.5"/>
<text text-anchor="middle" x="683" y="-128.8" font-family="Times,serif" font-size="14.00">5</text>
</g>
<!-- scanning -->
<g id="node14" class="node">
<title>scanning</title>
<polygon fill="none" stroke="black" points="110,-36 27,-36 27,0 110,0 110,-36"/>
<text text-anchor="middle" x="68.5" y="-14.3" font-family="Times,serif" font-size="14.00">Scanning</text>
</g>
<!-- scanning&#45;&gt;survey -->
<g id="edge8" class="edge">
<title>scanning&#45;&gt;survey</title>
<path fill="none" stroke="#7f7f7f" d="M110.09,-18C154.25,-18 224.52,-18 269.44,-18"/>
<polygon fill="#7f7f7f" stroke="#7f7f7f" points="269.45,-21.5 279.45,-18 269.45,-14.5 269.45,-21.5"/>
<text text-anchor="middle" x="160" y="-21.8" font-family="Times,serif" font-size="14.00">3</text>
</g>
</g>
</svg>
