<?xml version="1.0" encoding="UTF-8" standalone="no"?>
<!DOCTYPE svg PUBLIC "-//W3C//DTD SVG 1.1//EN"
 "http://www.w3.org/Graphics/SVG/1.1/DTD/svg11.dtd">
<!-- Generated by graphviz version 2.43.0 (0)
 -->
<!-- Title: Navigation Pages: 1 -->
<svg width="532pt" height="125pt"
 viewBox="0.00 0.00 532.00 125.00" xmlns="http://www.w3.org/2000/svg" xmlns:xlink="http://www.w3.org/1999/xlink">
<g id="graph0" class="graph" transform="scale(1 1) rotate(0) translate(4 121)">
<title>Navigation</title>
<polygon fill="white" stroke="transparent" points="-4,4 -4,-121 528,-121 528,4 -4,4"/>
<!-- warp_efficiency -->
<g id="node1" class="node">
<title>warp_efficiency</title>
<polygon fill="none" stroke="black" points="318.5,-90 190.5,-90 190.5,-54 318.5,-54 318.5,-90"/>
<text text-anchor="middle" x="254.5" y="-68.3" font-family="Times,serif" font-size="14.00">Warp Efficiency</text>
</g>
<!-- jump_calibration -->
<g id="node2" class="node">
<title>jump_calibration</title>
<polygon fill="none" stroke="black" points="524,-36 387,-36 387,0 524,0 524,-36"/>
<text text-anchor="middle" x="455.5" y="-14.3" font-family="Times,serif" font-size="14.00">Jump Calibration</text>
</g>
<!-- fuel_efficiency -->
<g id="node3" class="node">
<title>fuel_efficiency</title>
<polygon fill="none" stroke="black" points="122,-117 0,-117 0,-81 122,-81 122,-117"/>
<text text-anchor="middle" x="61" y="-95.3" font-family="Times,serif" font-size="14.00">Fuel Efficiency</text>
</g>
<!-- jump_drive -->
<g id="node4" class="node">
<title>jump_drive</title>
<polygon fill="none" stroke="black" points="341,-36 168,-36 168,0 341,0 341,-36"/>
<text text-anchor="middle" x="254.5" y="-14.3" font-family="Times,serif" font-size="14.00">Jump Drive Operation</text>
</g>
<!-- jump_drive&#45;&gt;jump_calibration -->
<g id="edge3" class="edge">
<title>jump_drive&#45;&gt;jump_calibration</title>
<path fill="none" stroke="black" d="M341.05,-18C352.86,-18 364.94,-18 376.61,-18"/>
<polygon fill="black" stroke="black" points="376.74,-21.5 386.74,-18 376.74,-14.5 376.74,-21.5"/>
<text text-anchor="middle" x="364" y="-21.8" font-family="Times,serif" font-size="14.00">5</text>
</g>
<!-- navigation -->
<g id="node5" class="node">
<title>navigation</title>
<polygon fill="none" stroke="black" points="108.5,-63 13.5,-63 13.5,-27 108.5,-27 108.5,-63"/>
<text text-anchor="middle" x="61" y="-41.3" font-family="Times,serif" font-size="14.00">Navigation</text>
</g>
<!-- navigation&#45;&gt;warp_efficiency -->
<g id="edge2" class="edge">
<title>navigation&#45;&gt;warp_efficiency</title>
<path fill="none" stroke="black" d="M108.85,-51.6C130.26,-54.62 156.13,-58.27 180.04,-61.64"/>
<polygon fill="black" stroke="black" points="179.76,-65.14 190.15,-63.07 180.73,-58.21 179.76,-65.14"/>
<text text-anchor="middle" x="145" y="-59.8" font-family="Times,serif" font-size="14.00">5</text>
</g>
<!-- navigation&#45;&gt;jump_drive -->
<g id="edge1" class="edge">
<title>navigation&#45;&gt;jump_drive</title>
<path fill="none" stroke="black" d="M108.85,-38.4C123.75,-36.29 140.81,-33.89 157.87,-31.48"/>
<polygon fill="black" stroke="black" points="158.48,-34.93 167.9,-30.07 157.51,-28 158.48,-34.93"/>
<text text-anchor="middle" x="145" y="-36.8" font-family="Times,serif" font-size="14.00">3</text>
</g>
</g>
</svg>
