<?xml version="1.0" encoding="UTF-8" standalone="no"?>
<!DOCTYPE svg PUBLIC "-//W3C//DTD SVG 1.1//EN"
 "http://www.w3.org/Graphics/SVG/1.1/DTD/svg11.dtd">
<!-- Generated by graphviz version 2.43.0 (0)
 -->
<!-- Title: Prestige Pages: 1 -->
<svg width="648pt" height="1436pt"
 viewBox="0.00 0.00 648.00 1436.00" xmlns="http://www.w3.org/2000/svg" xmlns:xlink="http://www.w3.org/1999/xlink">
<g id="graph0" class="graph" transform="scale(1 1) rotate(0) translate(4 1432)">
<title>Prestige</title>
<polygon fill="white" stroke="transparent" points="-4,4 -4,-1432 644,-1432 644,4 -4,4"/>
<!-- warlord -->
<g id="node1" class="node">
<title>warlord</title>
<polygon fill="none" stroke="black" points="371,-90 297,-90 297,-54 371,-54 371,-90"/>
<text text-anchor="middle" x="334" y="-68.3" font-family="Times,serif" font-size="14.00">Warlord</text>
</g>
<!-- legendary_pilot -->
<g id="node2" class="node">
<title>legendary_pilot</title>
<polygon fill="none" stroke="black" points="399,-252 269,-252 269,-216 399,-216 399,-252"/>
<text text-anchor="middle" x="334" y="-230.3" font-family="Times,serif" font-size="14.00">Legendary Pilot</text>
</g>
<!-- industrial_ships -->
<g id="node3" class="node">
<title>industrial_ships</title>
<polygon fill="none" stroke="black" points="156.5,-414 25.5,-414 25.5,-378 156.5,-378 156.5,-414"/>
<text text-anchor="middle" x="91" y="-392.3" font-family="Times,serif" font-size="14.00">Industrial Ships</text>
</g>
<!-- industrial_magnate -->
<g id="node38" class="node">
<title>industrial_magnate</title>
<polygon fill="none" stroke="black" points="640,-360 486,-360 486,-324 640,-324 640,-360"/>
<text text-anchor="middle" x="563" y="-338.3" font-family="Times,serif" font-size="14.00">Industrial Magnate</text>
</g>
<!-- industrial_ships&#45;&gt;industrial_magnate -->
<g id="edge30" class="edge">
<title>industrial_ships&#45;&gt;industrial_magnate</title>
<path fill="none" stroke="#7f7f7f" d="M156.56,-389.33C254.92,-379.18 431,-361 431,-361 431,-361 468,-356 468,-356 468,-356 470.82,-355.58 475.49,-354.88"/>
<polygon fill="#7f7f7f" stroke="#7f7f7f" points="476.31,-358.3 485.68,-353.37 475.27,-351.38 476.31,-358.3"/>
<text text-anchor="middle" x="334" y="-384.8" font-family="Times,serif" font-size="14.00">10</text>
</g>
<!-- shadow_operative -->
<g id="node4" class="node">
<title>shadow_operative</title>
<polygon fill="none" stroke="black" points="408,-522 260,-522 260,-486 408,-486 408,-522"/>
<text text-anchor="middle" x="334" y="-500.3" font-family="Times,serif" font-size="14.00">Shadow Operative</text>
</g>
<!-- cloaking_advanced -->
<g id="node5" class="node">
<title>cloaking_advanced</title>
<polygon fill="none" stroke="black" points="167,-576 15,-576 15,-540 167,-540 167,-576"/>
<text text-anchor="middle" x="91" y="-554.3" font-family="Times,serif" font-size="14.00">Advanced Cloaking</text>
</g>
<!-- cloaking_advanced&#45;&gt;shadow_operative -->
<g id="edge1" class="edge">
<title>cloaking_advanced&#45;&gt;shadow_operative</title>
<path fill="none" stroke="#7f7f7f" d="M167.26,-541.14C193.59,-535.24 223.28,-528.59 250.18,-522.56"/>
<polygon fill="#7f7f7f" stroke="#7f7f7f" points="250.96,-525.97 259.96,-520.37 249.43,-519.14 250.96,-525.97"/>
<text text-anchor="middle" x="209.5" y="-536.8" font-family="Times,serif" font-size="14.00">10</text>
</g>
<!-- advanced_engineering -->
<g id="node6" class="node">
<title>advanced_engineering</title>
<polygon fill="none" stroke="black" points="180,-837 2,-837 2,-801 180,-801 180,-837"/>
<text text-anchor="middle" x="91" y="-815.3" font-family="Times,serif" font-size="14.00">Advanced Engineering</text>
</g>
<!-- titan_pilot -->
<g id="node33" class="node">
<title>titan_pilot</title>
<polygon fill="none" stroke="black" points="608.5,-783 517.5,-783 517.5,-747 608.5,-747 608.5,-783"/>
<text text-anchor="middle" x="563" y="-761.3" font-family="Times,serif" font-size="14.00">Titan Pilot</text>
</g>
<!-- advanced_engineering&#45;&gt;titan_pilot -->
<g id="edge7" class="edge">
<title>advanced_engineering&#45;&gt;titan_pilot</title>
<path fill="none" stroke="#7f7f7f" d="M180.18,-811.98C280.63,-803.98 431,-792 431,-792 431,-792 471.38,-783.68 507.31,-776.27"/>
<polygon fill="#7f7f7f" stroke="#7f7f7f" points="508.2,-779.66 517.28,-774.22 506.78,-772.81 508.2,-779.66"/>
<text text-anchor="middle" x="334" y="-810.8" font-family="Times,serif" font-size="14.00">10</text>
</g>
<!-- master_trader -->
<g id="node7" class="node">
<title>master_trader</title>
<polygon fill="none" stroke="black" points="394,-945 274,-945 274,-909 394,-909 394,-945"/>
<text text-anchor="middle" x="334" y="-923.3" font-family="Times,serif" font-size="14.00">Master Trader</text>
</g>
<!-- negotiation -->
<g id="node8" class="node">
<title>negotiation</title>
<polygon fill="none" stroke="black" points="141.5,-999 40.5,-999 40.5,-963 141.5,-963 141.5,-999"/>
<text text-anchor="middle" x="91" y="-977.3" font-family="Times,serif" font-size="14.00">Negotiation</text>
</g>
<!-- negotiation&#45;&gt;master_trader -->
<g id="edge21" class="edge">
<title>negotiation&#45;&gt;master_trader</title>
<path fill="none" stroke="#7f7f7f" d="M141.64,-969.88C176.81,-962 224.46,-951.32 263.41,-942.59"/>
<polygon fill="#7f7f7f" stroke="#7f7f7f" points="264.64,-945.9 273.63,-940.3 263.11,-939.07 264.64,-945.9"/>
<text text-anchor="middle" x="209.5" y="-958.8" font-family="Times,serif" font-size="14.00">10</text>
</g>
<!-- master_craftsman -->
<g id="node9" class="node">
<title>master_craftsman</title>
<polygon fill="none" stroke="black" points="407.5,-1107 260.5,-1107 260.5,-1071 407.5,-1071 407.5,-1107"/>
<text text-anchor="middle" x="334" y="-1085.3" font-family="Times,serif" font-size="14.00">Master Craftsman</text>
</g>
<!-- evasion -->
<g id="node10" class="node">
<title>evasion</title>
<polygon fill="none" stroke="black" points="169,-306 13,-306 13,-270 169,-270 169,-306"/>
<text text-anchor="middle" x="91" y="-284.3" font-family="Times,serif" font-size="14.00">Evasive Maneuvers</text>
</g>
<!-- evasion&#45;&gt;legendary_pilot -->
<g id="edge16" class="edge">
<title>evasion&#45;&gt;legendary_pilot</title>
<path fill="none" stroke="#7f7f7f" d="M169.25,-270.69C197.94,-264.26 230.41,-256.99 258.83,-250.62"/>
<polygon fill="#7f7f7f" stroke="#7f7f7f" points="259.7,-254.01 268.7,-248.41 258.17,-247.18 259.7,-254.01"/>
<text text-anchor="middle" x="209.5" y="-266.8" font-family="Times,serif" font-size="14.00">10</text>
</g>
<!-- blueprint_research -->
<g id="node11" class="node">
<title>blueprint_research</title>
<polygon fill="none" stroke="black" points="168.5,-1161 13.5,-1161 13.5,-1125 168.5,-1125 168.5,-1161"/>
<text text-anchor="middle" x="91" y="-1139.3" font-family="Times,serif" font-size="14.00">Blueprint Research</text>
</g>
<!-- blueprint_research&#45;&gt;master_craftsman -->
<g id="edge22" class="edge">
<title>blueprint_research&#45;&gt;master_craftsman</title>
<path fill="none" stroke="#7f7f7f" d="M168.59,-1125.84C194.62,-1120.01 223.82,-1113.46 250.3,-1107.53"/>
<polygon fill="#7f7f7f" stroke="#7f7f7f" points="251.32,-1110.89 260.31,-1105.29 249.79,-1104.06 251.32,-1110.89"/>
<text text-anchor="middle" x="209.5" y="-1120.8" font-family="Times,serif" font-size="14.00">10</text>
</g>
<!-- crafting_mastery -->
<g id="node12" class="node">
<title>crafting_mastery</title>
<polygon fill="none" stroke="black" points="161,-1107 21,-1107 21,-1071 161,-1071 161,-1107"/>
<text text-anchor="middle" x="91" y="-1085.3" font-family="Times,serif" font-size="14.00">Crafting Mastery</text>
</g>
<!-- crafting_mastery&#45;&gt;master_craftsman -->
<g id="edge23" class="edge">
<title>crafting_mastery&#45;&gt;master_craftsman</title>
<path fill="none" stroke="#7f7f7f" d="M161.06,-1089C188.81,-1089 221.03,-1089 250.04,-1089"/>
<polygon fill="#7f7f7f" stroke="#7f7f7f" points="250.15,-1092.5 260.15,-1089 250.15,-1085.5 250.15,-1092.5"/>
<text text-anchor="middle" x="209.5" y="-1092.8" font-family="Times,serif" font-size="14.00">5</text>
</g>
<!-- boarding_combat -->
<g id="node13" class="node">
<title>boarding_combat</title>
<polygon fill="none" stroke="black" points="162,-144 20,-144 20,-108 162,-108 162,-144"/>
<text text-anchor="middle" x="91" y="-122.3" font-family="Times,serif" font-size="14.00">Boarding Combat</text>
</g>
<!-- boarding_combat&#45;&gt;warlord -->
<g id="edge14" class="edge">
<title>boarding_combat&#45;&gt;warlord</title>
<path fill="none" stroke="#7f7f7f" d="M162.03,-110.31C202.25,-101.3 251.64,-90.23 286.97,-82.31"/>
<polygon fill="#7f7f7f" stroke="#7f7f7f" points="288.01,-85.67 297,-80.07 286.47,-78.84 288.01,-85.67"/>
<text text-anchor="middle" x="209.5" y="-104.8" font-family="Times,serif" font-size="14.00">10</text>
</g>
<!-- capital_weapons -->
<g id="node14" class="node">
<title>capital_weapons</title>
<polygon fill="none" stroke="black" points="431,-783 237,-783 237,-747 431,-747 431,-783"/>
<text text-anchor="middle" x="334" y="-761.3" font-family="Times,serif" font-size="14.00">Capital Weapon Systems</text>
</g>
<!-- capital_weapons&#45;&gt;titan_pilot -->
<g id="edge9" class="edge">
<title>capital_weapons&#45;&gt;titan_pilot</title>
<path fill="none" stroke="#7f7f7f" d="M431.27,-765C457.26,-765 484.48,-765 507.31,-765"/>
<polygon fill="#7f7f7f" stroke="#7f7f7f" points="507.47,-768.5 517.47,-765 507.47,-761.5 507.47,-768.5"/>
<text text-anchor="middle" x="458.5" y="-768.8" font-family="Times,serif" font-size="14.00">5</text>
</g>
<!-- deep_core_mining -->
<g id="node15" class="node">
<title>deep_core_mining</title>
<polygon fill="none" stroke="black" points="164,-360 18,-360 18,-324 164,-324 164,-360"/>
<text text-anchor="middle" x="91" y="-338.3" font-family="Times,serif" font-size="14.00">Deep Core Mining</text>
</g>
<!-- deep_core_mining&#45;&gt;industrial_magnate -->
<g id="edge29" class="edge">
<title>deep_core_mining&#45;&gt;industrial_magnate</title>
<path fill="none" stroke="#7f7f7f" d="M164.15,-342C248.02,-342 386.34,-342 475.79,-342"/>
<polygon fill="#7f7f7f" stroke="#7f7f7f" points="475.91,-345.5 485.91,-342 475.91,-338.5 475.91,-345.5"/>
<text text-anchor="middle" x="334" y="-345.8" font-family="Times,serif" font-size="14.00">10</text>
</g>
<!-- mass_production -->
<g id="node16" class="node">
<title>mass_production</title>
<polygon fill="none" stroke="black" points="402.5,-306 265.5,-306 265.5,-270 402.5,-270 402.5,-306"/>
<text text-anchor="middle" x="334" y="-284.3" font-family="Times,serif" font-size="14.00">Mass Production</text>
</g>
<!-- mass_production&#45;&gt;industrial_magnate -->
<g id="edge28" class="edge">
<title>mass_production&#45;&gt;industrial_magnate</title>
<path fill="none" stroke="#7f7f7f" d="M402.67,-300.72C435.52,-306.9 468,-313 468,-313 468,-313 479.05,-316.41 493.57,-320.89"/>
<polygon fill="#7f7f7f" stroke="#7f7f7f" points="492.95,-324.36 503.54,-323.96 495.01,-317.67 492.95,-324.36"/>
<text text-anchor="middle" x="458.5" y="-316.8" font-family="Times,serif" font-size="14.00">10</text>
</g>
<!-- covert_ops -->
<g id="node17" class="node">
<title>covert_ops</title>
<polygon fill="none" stroke="black" points="165,-522 17,-522 17,-486 165,-486 165,-522"/>
<text text-anchor="middle" x="91" y="-500.3" font-family="Times,serif" font-size="14.00">Covert Operations</text>
</g>
<!-- covert_ops&#45;&gt;shadow_operative -->
<g id="edge2" class="edge">
<title>covert_ops&#45;&gt;shadow_operative</title>
<path fill="none" stroke="#7f7f7f" d="M165.29,-504C191.81,-504 221.96,-504 249.31,-504"/>
<polygon fill="#7f7f7f" stroke="#7f7f7f" points="249.64,-507.5 259.64,-504 249.64,-500.5 249.64,-507.5"/>
<text text-anchor="middle" x="209.5" y="-507.8" font-family="Times,serif" font-size="14.00">10</text>
</g>
<!-- capital_ships -->
<g id="node18" class="node">
<title>capital_ships</title>
<polygon fill="none" stroke="black" points="147,-708 35,-708 35,-672 147,-672 147,-708"/>
<text text-anchor="middle" x="91" y="-686.3" font-family="Times,serif" font-size="14.00">Capital Ships</text>
</g>
<!-- capital_ships&#45;&gt;titan_pilot -->
<g id="edge8" class="edge">
<title>capital_ships&#45;&gt;titan_pilot</title>
<path fill="none" stroke="#7f7f7f" d="M147.22,-695.38C243.28,-704.73 431,-723 431,-723 431,-723 471.38,-735.95 507.31,-747.46"/>
<polygon fill="#7f7f7f" stroke="#7f7f7f" points="506.69,-750.94 517.28,-750.66 508.83,-744.28 506.69,-750.94"/>
<text text-anchor="middle" x="334" y="-726.8" font-family="Times,serif" font-size="14.00">10</text>
</g>
<!-- grand_admiral -->
<g id="node39" class="node">
<title>grand_admiral</title>
<polygon fill="none" stroke="black" points="624,-630 502,-630 502,-594 624,-594 624,-630"/>
<text text-anchor="middle" x="563" y="-608.3" font-family="Times,serif" font-size="14.00">Grand Admiral</text>
</g>
<!-- capital_ships&#45;&gt;grand_admiral -->
<g id="edge6" class="edge">
<title>capital_ships&#45;&gt;grand_admiral</title>
<path fill="none" stroke="#7f7f7f" d="M147.3,-680.82C232.99,-666.6 397.75,-639.26 491.75,-623.66"/>
<polygon fill="#7f7f7f" stroke="#7f7f7f" points="492.44,-627.09 501.73,-622 491.3,-620.19 492.44,-627.09"/>
<text text-anchor="middle" x="334" y="-668.8" font-family="Times,serif" font-size="14.00">10</text>
</g>
<!-- combat_drones -->
<g id="node19" class="node">
<title>combat_drones</title>
<polygon fill="none" stroke="black" points="155,-1269 27,-1269 27,-1233 155,-1233 155,-1269"/>
<text text-anchor="middle" x="91" y="-1247.3" font-family="Times,serif" font-size="14.00">Combat Drones</text>
</g>
<!-- drone_sovereign -->
<g id="node34" class="node">
<title>drone_sovereign</title>
<polygon fill="none" stroke="black" points="631.5,-1215 494.5,-1215 494.5,-1179 631.5,-1179 631.5,-1215"/>
<text text-anchor="middle" x="563" y="-1193.3" font-family="Times,serif" font-size="14.00">Drone Sovereign</text>
</g>
<!-- combat_drones&#45;&gt;drone_sovereign -->
<g id="edge10" class="edge">
<title>combat_drones&#45;&gt;drone_sovereign</title>
<path fill="none" stroke="#7f7f7f" d="M155.37,-1244.46C253.48,-1234.33 431,-1216 431,-1216 431,-1216 468,-1211 468,-1211 468,-1211 474.6,-1210.02 484.3,-1208.57"/>
<polygon fill="#7f7f7f" stroke="#7f7f7f" points="485.06,-1212 494.43,-1207.06 484.03,-1205.07 485.06,-1212"/>
<text text-anchor="middle" x="334" y="-1238.8" font-family="Times,serif" font-size="14.00">10</text>
</g>
<!-- first_contact -->
<g id="node20" class="node">
<title>first_contact</title>
<polygon fill="none" stroke="black" points="182,-1428 0,-1428 0,-1392 182,-1392 182,-1428"/>
<text text-anchor="middle" x="91" y="-1406.3" font-family="Times,serif" font-size="14.00">First Contact Protocols</text>
</g>
<!-- pathfinder -->
<g id="node27" class="node">
<title>pathfinder</title>
<polygon fill="none" stroke="black" points="608.5,-1374 517.5,-1374 517.5,-1338 608.5,-1338 608.5,-1374"/>
<text text-anchor="middle" x="563" y="-1352.3" font-family="Times,serif" font-size="14.00">Pathfinder</text>
</g>
<!-- first_contact&#45;&gt;pathfinder -->
<g id="edge26" class="edge">
<title>first_contact&#45;&gt;pathfinder</title>
<path fill="none" stroke="#7f7f7f" d="M182.4,-1402.8C282.82,-1394.8 431,-1383 431,-1383 431,-1383 471.38,-1374.68 507.31,-1367.27"/>
<polygon fill="#7f7f7f" stroke="#7f7f7f" points="508.2,-1370.66 517.28,-1365.22 506.78,-1363.81 508.2,-1370.66"/>
<text text-anchor="middle" x="334" y="-1401.8" font-family="Times,serif" font-size="14.00">7</text>
</g>
<!-- wormhole_navigation -->
<g id="node21" class="node">
<title>wormhole_navigation</title>
<polygon fill="none" stroke="black" points="419.5,-1374 248.5,-1374 248.5,-1338 419.5,-1338 419.5,-1374"/>
<text text-anchor="middle" x="334" y="-1352.3" font-family="Times,serif" font-size="14.00">Wormhole Navigation</text>
</g>
<!-- wormhole_navigation&#45;&gt;pathfinder -->
<g id="edge27" class="edge">
<title>wormhole_navigation&#45;&gt;pathfinder</title>
<path fill="none" stroke="#7f7f7f" d="M419.53,-1356C448.79,-1356 480.82,-1356 507.07,-1356"/>
<polygon fill="#7f7f7f" stroke="#7f7f7f" points="507.21,-1359.5 517.21,-1356 507.21,-1352.5 507.21,-1359.5"/>
<text text-anchor="middle" x="458.5" y="-1359.8" font-family="Times,serif" font-size="14.00">7</text>
</g>
<!-- leadership -->
<g id="node22" class="node">
<title>leadership</title>
<polygon fill="none" stroke="black" points="139,-630 43,-630 43,-594 139,-594 139,-630"/>
<text text-anchor="middle" x="91" y="-608.3" font-family="Times,serif" font-size="14.00">Leadership</text>
</g>
<!-- leadership&#45;&gt;grand_admiral -->
<g id="edge5" class="edge">
<title>leadership&#45;&gt;grand_admiral</title>
<path fill="none" stroke="#7f7f7f" d="M139.22,-612C222.29,-612 394.96,-612 491.96,-612"/>
<polygon fill="#7f7f7f" stroke="#7f7f7f" points="491.97,-615.5 501.97,-612 491.97,-608.5 491.97,-615.5"/>
<text text-anchor="middle" x="334" y="-615.8" font-family="Times,serif" font-size="14.00">10</text>
</g>
<!-- siege_warfare -->
<g id="node23" class="node">
<title>siege_warfare</title>
<polygon fill="none" stroke="black" points="150,-90 32,-90 32,-54 150,-54 150,-90"/>
<text text-anchor="middle" x="91" y="-68.3" font-family="Times,serif" font-size="14.00">Siege Warfare</text>
</g>
<!-- siege_warfare&#45;&gt;warlord -->
<g id="edge13" class="edge">
<title>siege_warfare&#45;&gt;warlord</title>
<path fill="none" stroke="#7f7f7f" d="M150.03,-72C191.97,-72 247.86,-72 286.79,-72"/>
<polygon fill="#7f7f7f" stroke="#7f7f7f" points="286.79,-75.5 296.79,-72 286.79,-68.5 286.79,-75.5"/>
<text text-anchor="middle" x="209.5" y="-75.8" font-family="Times,serif" font-size="14.00">10</text>
</g>
<!-- weapons_specialization -->
<g id="node24" class="node">
<title>weapons_specialization</title>
<polygon fill="none" stroke="black" points="163,-252 19,-252 19,-216 163,-216 163,-252"/>
<text text-anchor="middle" x="91" y="-230.3" font-family="Times,serif" font-size="14.00">Weapons Mastery</text>
</g>
<!-- weapons_specialization&#45;&gt;legendary_pilot -->
<g id="edge18" class="edge">
<title>weapons_specialization&#45;&gt;legendary_pilot</title>
<path fill="none" stroke="#7f7f7f" d="M163,-234C193.07,-234 228.11,-234 258.53,-234"/>
<polygon fill="#7f7f7f" stroke="#7f7f7f" points="258.66,-237.5 268.66,-234 258.66,-230.5 258.66,-237.5"/>
<text text-anchor="middle" x="209.5" y="-237.8" font-family="Times,serif" font-size="14.00">5</text>
</g>
<!-- bulk_trading -->
<g id="node25" class="node">
<title>bulk_trading</title>
<polygon fill="none" stroke="black" points="145.5,-945 36.5,-945 36.5,-909 145.5,-909 145.5,-945"/>
<text text-anchor="middle" x="91" y="-923.3" font-family="Times,serif" font-size="14.00">Bulk Trading</text>
</g>
<!-- bulk_trading&#45;&gt;master_trader -->
<g id="edge19" class="edge">
<title>bulk_trading&#45;&gt;master_trader</title>
<path fill="none" stroke="#7f7f7f" d="M145.79,-927C180.53,-927 226.08,-927 263.55,-927"/>
<polygon fill="#7f7f7f" stroke="#7f7f7f" points="263.89,-930.5 273.89,-927 263.89,-923.5 263.89,-930.5"/>
<text text-anchor="middle" x="209.5" y="-930.8" font-family="Times,serif" font-size="14.00">7</text>
</g>
<!-- market_analysis -->
<g id="node26" class="node">
<title>market_analysis</title>
<polygon fill="none" stroke="black" points="157,-891 25,-891 25,-855 157,-855 157,-891"/>
<text text-anchor="middle" x="91" y="-869.3" font-family="Times,serif" font-size="14.00">Market Analysis</text>
</g>
<!-- market_analysis&#45;&gt;master_trader -->
<g id="edge20" class="edge">
<title>market_analysis&#45;&gt;master_trader</title>
<path fill="none" stroke="#7f7f7f" d="M157.22,-887.61C190.19,-895 230.21,-903.97 263.74,-911.48"/>
<polygon fill="#7f7f7f" stroke="#7f7f7f" points="263.39,-914.99 273.92,-913.76 264.92,-908.16 263.39,-914.99"/>
<text text-anchor="middle" x="209.5" y="-903.8" font-family="Times,serif" font-size="14.00">10</text>
</g>
<!-- speed_combat -->
<g id="node28" class="node">
<title>speed_combat</title>
<polygon fill="none" stroke="black" points="176.5,-198 5.5,-198 5.5,-162 176.5,-162 176.5,-198"/>
<text text-anchor="middle" x="91" y="-176.3" font-family="Times,serif" font-size="14.00">Combat Maneuvering</text>
</g>
<!-- speed_combat&#45;&gt;legendary_pilot -->
<g id="edge17" class="edge">
<title>speed_combat&#45;&gt;legendary_pilot</title>
<path fill="none" stroke="#7f7f7f" d="M172.58,-198.06C200.49,-204.31 231.62,-211.28 258.98,-217.41"/>
<polygon fill="#7f7f7f" stroke="#7f7f7f" points="258.35,-220.86 268.87,-219.63 259.88,-214.03 258.35,-220.86"/>
<text text-anchor="middle" x="209.5" y="-210.8" font-family="Times,serif" font-size="14.00">10</text>
</g>
<!-- quality_control -->
<g id="node29" class="node">
<title>quality_control</title>
<polygon fill="none" stroke="black" points="154,-1053 28,-1053 28,-1017 154,-1017 154,-1053"/>
<text text-anchor="middle" x="91" y="-1031.3" font-family="Times,serif" font-size="14.00">Quality Control</text>
</g>
<!-- quality_control&#45;&gt;master_craftsman -->
<g id="edge24" class="edge">
<title>quality_control&#45;&gt;master_craftsman</title>
<path fill="none" stroke="#7f7f7f" d="M154.06,-1048.91C183.39,-1055.48 218.8,-1063.41 250.36,-1070.48"/>
<polygon fill="#7f7f7f" stroke="#7f7f7f" points="249.93,-1073.97 260.45,-1072.75 251.46,-1067.14 249.93,-1073.97"/>
<text text-anchor="middle" x="209.5" y="-1065.8" font-family="Times,serif" font-size="14.00">10</text>
</g>
<!-- espionage -->
<g id="node30" class="node">
<title>espionage</title>
<polygon fill="none" stroke="black" points="136.5,-468 45.5,-468 45.5,-432 136.5,-432 136.5,-468"/>
<text text-anchor="middle" x="91" y="-446.3" font-family="Times,serif" font-size="14.00">Espionage</text>
</g>
<!-- espionage&#45;&gt;shadow_operative -->
<g id="edge3" class="edge">
<title>espionage&#45;&gt;shadow_operative</title>
<path fill="none" stroke="#7f7f7f" d="M136.77,-460.03C168.38,-467.11 211.69,-476.82 249.58,-485.31"/>
<polygon fill="#7f7f7f" stroke="#7f7f7f" points="249.07,-488.78 259.6,-487.55 250.6,-481.95 249.07,-488.78"/>
<text text-anchor="middle" x="209.5" y="-480.8" font-family="Times,serif" font-size="14.00">10</text>
</g>
<!-- piracy -->
<g id="node31" class="node">
<title>piracy</title>
<polygon fill="none" stroke="black" points="122,-36 60,-36 60,0 122,0 122,-36"/>
<text text-anchor="middle" x="91" y="-14.3" font-family="Times,serif" font-size="14.00">Piracy</text>
</g>
<!-- piracy&#45;&gt;warlord -->
<g id="edge15" class="edge">
<title>piracy&#45;&gt;warlord</title>
<path fill="none" stroke="#7f7f7f" d="M122.04,-24.73C163.38,-33.99 238.22,-50.76 286.74,-61.64"/>
<polygon fill="#7f7f7f" stroke="#7f7f7f" points="286.15,-65.09 296.68,-63.86 287.68,-58.26 286.15,-65.09"/>
<text text-anchor="middle" x="209.5" y="-48.8" font-family="Times,serif" font-size="14.00">10</text>
</g>
<!-- fleet_command -->
<g id="node32" class="node">
<title>fleet_command</title>
<polygon fill="none" stroke="black" points="399,-576 269,-576 269,-540 399,-540 399,-576"/>
<text text-anchor="middle" x="334" y="-554.3" font-family="Times,serif" font-size="14.00">Fleet Command</text>
</g>
<!-- fleet_command&#45;&gt;grand_admiral -->
<g id="edge4" class="edge">
<title>fleet_command&#45;&gt;grand_admiral</title>
<path fill="none" stroke="#7f7f7f" d="M399.16,-570.06C433.17,-576.45 468,-583 468,-583 468,-583 479.05,-586.41 493.57,-590.89"/>
<polygon fill="#7f7f7f" stroke="#7f7f7f" points="492.95,-594.36 503.54,-593.96 495.01,-587.67 492.95,-594.36"/>
<text text-anchor="middle" x="458.5" y="-586.8" font-family="Times,serif" font-size="14.00">10</text>
</g>
<!-- drone_control -->
<g id="node35" class="node">
<title>drone_control</title>
<polygon fill="none" stroke="black" points="150,-1215 32,-1215 32,-1179 150,-1179 150,-1215"/>
<text text-anchor="middle" x="91" y="-1193.3" font-family="Times,serif" font-size="14.00">Drone Control</text>
</g>
<!-- drone_control&#45;&gt;drone_sovereign -->
<g id="edge11" class="edge">
<title>drone_control&#45;&gt;drone_sovereign</title>
<path fill="none" stroke="#7f7f7f" d="M150.1,-1197C234.23,-1197 390.14,-1197 484.13,-1197"/>
<polygon fill="#7f7f7f" stroke="#7f7f7f" points="484.16,-1200.5 494.16,-1197 484.16,-1193.5 484.16,-1200.5"/>
<text text-anchor="middle" x="334" y="-1200.8" font-family="Times,serif" font-size="14.00">10</text>
</g>
<!-- drone_interfacing -->
<g id="node36" class="node">
<title>drone_interfacing</title>
<polygon fill="none" stroke="black" points="405.5,-1161 262.5,-1161 262.5,-1125 405.5,-1125 405.5,-1161"/>
<text text-anchor="middle" x="334" y="-1139.3" font-family="Times,serif" font-size="14.00">Drone Interfacing</text>
</g>
<!-- drone_interfacing&#45;&gt;drone_sovereign -->
<g id="edge12" class="edge">
<title>drone_interfacing&#45;&gt;drone_sovereign</title>
<path fill="none" stroke="#7f7f7f" d="M405.78,-1156.31C437.55,-1162.28 468,-1168 468,-1168 468,-1168 479.05,-1171.41 493.57,-1175.89"/>
<polygon fill="#7f7f7f" stroke="#7f7f7f" points="492.95,-1179.36 503.54,-1178.96 495.01,-1172.67 492.95,-1179.36"/>
<text text-anchor="middle" x="458.5" y="-1171.8" font-family="Times,serif" font-size="14.00">5</text>
</g>
<!-- astrometrics -->
<g id="node37" class="node">
<title>astrometrics</title>
<polygon fill="none" stroke="black" points="145.5,-1323 36.5,-1323 36.5,-1287 145.5,-1287 145.5,-1323"/>
<text text-anchor="middle" x="91" y="-1301.3" font-family="Times,serif" font-size="14.00">Astrometrics</text>
</g>
<!-- astrometrics&#45;&gt;pathfinder -->
<g id="edge25" class="edge">
<title>astrometrics&#45;&gt;pathfinder</title>
<path fill="none" stroke="#7f7f7f" d="M145.72,-1306.43C241.3,-1308.96 431,-1314 431,-1314 431,-1314 471.38,-1326.95 507.31,-1338.46"/>
<polygon fill="#7f7f7f" stroke="#7f7f7f" points="506.69,-1341.94 517.28,-1341.66 508.83,-1335.28 506.69,-1341.94"/>
<text text-anchor="middle" x="334" y="-1317.8" font-family="Times,serif" font-size="14.00">10</text>
</g>
</g>
</svg>
